<svg version="1" xmlns="http://www.w3.org/2000/svg" width="682.667" height="682.667" viewBox="0 0 512.000000 512.000000"><path d="M209 92.7c-64 1-118.9 4.7-135.5 8.9-20 5.2-37.7 22.9-42.9 42.9-6.7 26.1-10.7 89.9-8.7 139.9 1.2 30.1 3.2 53.6 5.7 68.5 3.8 22.4 7.3 30.2 18.8 41.7 13 13 23.2 16.9 52.6 19.9 40.5 4.2 101.5 5.9 182 5.2 90.3-.8 140.2-3.8 159.1-9.3 20.2-5.9 35-21.3 40.8-42.4 12.4-44.5 12.6-171.6.4-222-5.7-23.4-23.4-40-48.3-45-31-6.2-128.8-9.9-224-8.3zm63.3 129.8l58.8 33.8-2.8 1.8C322 261.9 210 326 209.5 326c-.3 0-.5-31.6-.5-70.1v-70.1l2.3 1.4c1.2.8 28.7 16.7 61 35.3z"/></svg>